<svg width="200" height="200" viewBox="0 0 200 200" xmlns="http://www.w3.org/2000/svg">
  <circle cx="100" cy="100" r="95" fill="#f8f9fa"/>
  <path d="M100 30c-38.66 0-70 31.34-70 70s31.34 70 70 70 70-31.34 70-70-31.34-70-70-70zm32.16 101.16c-.84 1.38-2.34 2.14-3.88 2.14-1.82 0-3.6-.94-4.58-2.62-8.46-14.66-24.06-23.76-40.86-23.76-13.08 0-25.14 5.1-34.16 14.36-2.16 2.2-5.7 2.24-7.9.08-2.2-2.16-2.24-5.7-.08-7.9 11.12-11.34 25.9-17.58 42.14-17.58 20.68 0 39.96 11.26 50.16 29.38 1.26 2.18.52 4.96-1.66 6.22zm8.84-19.7c-.84 1.38-2.34 2.14-3.88 2.14-1.82 0-3.6-.94-4.58-2.62-12.46-21.6-35.44-35-60.54-35-19.34 0-37.16 7.54-50.44 21.24-2.16 2.2-5.7 2.24-7.9.08-2.2-2.16-2.24-5.7-.08-7.9 15.38-15.7 35.9-24.36 58.42-24.36 29.1 0 56.2 15.64 70.84 40.8 1.26 2.18.52 4.96-1.66 6.22z" fill="#212529"/>
</svg> 